<svg viewBox="0 0 200 200" xmlns="http://www.w3.org/2000/svg">
  <!-- Background circle (optional, can be removed) -->
  <defs>
    <linearGradient id="maskGradient" x1="0%" y1="0%" x2="100%" y2="100%">
      <stop offset="0%" style="stop-color:#0099cc;stop-opacity:1" />
      <stop offset="100%" style="stop-color:#0077aa;stop-opacity:1" />
    </linearGradient>
  </defs>

  <!-- Left Mask (Comedy - Smiling) -->
  <g transform="translate(50, 100)">
    <!-- Mask face -->
    <circle cx="0" cy="0" r="35" fill="url(#maskGradient)" stroke="#ffffff" stroke-width="2"/>

    <!-- Left eye -->
    <circle cx="-12" cy="-10" r="5" fill="#ffffff"/>
    <circle cx="-12" cy="-10" r="3" fill="#0099cc"/>

    <!-- Right eye -->
    <circle cx="12" cy="-10" r="5" fill="#ffffff"/>
    <circle cx="12" cy="-10" r="3" fill="#0099cc"/>

    <!-- Smiling mouth (arc) -->
    <path d="M -15 5 Q 0 18 15 5" stroke="#ffffff" stroke-width="2.5" fill="none" stroke-linecap="round"/>

    <!-- Nose -->
    <line x1="0" y1="-8" x2="0" y2="0" stroke="#ffffff" stroke-width="1.5"/>
  </g>

  <!-- Right Mask (Tragedy - Sad) -->
  <g transform="translate(130, 100)">
    <!-- Mask face -->
    <circle cx="0" cy="0" r="35" fill="#87ceeb" stroke="#ffffff" stroke-width="2"/>

    <!-- Left eye -->
    <circle cx="-12" cy="-10" r="5" fill="#ffffff"/>
    <circle cx="-12" cy="-10" r="3" fill="#0099cc"/>

    <!-- Right eye -->
    <circle cx="12" cy="-10" r="5" fill="#ffffff"/>
    <circle cx="12" cy="-10" r="3" fill="#0099cc"/>

    <!-- Frowning mouth (inverted arc) -->
    <path d="M -15 8 Q 0 -5 15 8" stroke="#ffffff" stroke-width="2.5" fill="none" stroke-linecap="round"/>

    <!-- Nose -->
    <line x1="0" y1="-8" x2="0" y2="0" stroke="#ffffff" stroke-width="1.5"/>
  </g>

  <!-- Connection line between masks -->
  <line x1="85" y1="100" x2="115" y2="100" stroke="#0099cc" stroke-width="3" stroke-linecap="round"/>

  <!-- Decorative network nodes -->
  <circle cx="70" cy="70" r="3" fill="#0099cc"/>
  <circle cx="130" cy="70" r="3" fill="#0099cc"/>
  <circle cx="100" cy="50" r="3" fill="#0099cc"/>

  <!-- Connecting lines for network effect -->
  <line x1="70" y1="70" x2="100" y2="50" stroke="#0099cc" stroke-width="1.5" opacity="0.6"/>
  <line x1="130" y1="70" x2="100" y2="50" stroke="#0099cc" stroke-width="1.5" opacity="0.6"/>
</svg>
